<?xml version="1.0" standalone="no"?>
<!DOCTYPE svg PUBLIC "-//W3C//DTD SVG 20010904//EN"
 "http://www.w3.org/TR/2001/REC-SVG-20010904/DTD/svg10.dtd">
<svg version="1.0" xmlns="http://www.w3.org/2000/svg"
 width="512.000000pt" height="512.000000pt" viewBox="0 0 512.000000 512.000000"
 preserveAspectRatio="xMidYMid meet">
<metadata>
Created by potrace 1.14, written by Peter Selinger 2001-2017
</metadata>
<g transform="translate(0.000000,512.000000) scale(0.100000,-0.100000)"
fill="#000000" stroke="none">
<path d="M2517 4694 c-1 -1 -33 -4 -72 -7 -73 -7 -204 -37 -267 -62 -314 -124
-540 -365 -637 -680 -37 -116 -47 -233 -47 -498 1 -158 -3 -247 -9 -248 -126
-7 -189 -21 -277 -64 -81 -39 -148 -92 -206 -159 -48 -56 -118 -191 -127 -245
-3 -19 -9 -39 -13 -45 -4 -6 -7 -384 -8 -839 -1 -893 0 -916 51 -1038 81 -191
256 -331 465 -371 61 -12 2225 -18 2320 -6 127 15 207 42 294 101 152 103 247
251 274 427 4 25 7 416 7 870 0 779 -1 829 -19 895 -71 263 -283 444 -551 471
-33 3 -62 8 -64 10 -2 2 -5 128 -6 281 -2 302 -10 365 -65 514 -129 354 -439
612 -810 674 -70 12 -226 24 -233 19z m198 -445 c214 -50 385 -210 456 -426
20 -62 23 -92 27 -345 l4 -278 -642 0 -642 0 4 278 c4 268 5 279 30 352 39
112 74 167 157 251 61 61 94 85 163 118 135 64 302 83 443 50z m999 -1493 c61
-23 102 -72 116 -138 8 -38 10 -274 8 -838 -3 -740 -4 -787 -21 -819 -26 -46
-64 -78 -112 -93 -48 -15 -2205 -20 -2270 -6 -59 13 -102 47 -130 102 l-25 49
0 791 c0 517 4 804 10 828 21 74 83 124 168 137 25 3 533 6 1128 5 999 -1
1086 -2 1128 -18z"/>
<path d="M2502 2340 c-55 -13 -107 -54 -132 -107 -22 -47 -23 -55 -22 -383 0
-462 -3 -420 35 -476 46 -69 85 -88 179 -89 69 0 80 3 120 30 27 19 52 48 67
78 24 48 24 49 24 422 l1 373 -25 48 c-43 84 -144 126 -247 104z"/>
</g>
</svg>
